<svg xmlns="http://www.w3.org/2000/svg" xmlns:xlink="http://www.w3.org/1999/xlink" version="1.1" width="256" height="256" viewBox="0 0 256 256" xml:space="preserve">

<defs>
</defs>
<g style="stroke: none; stroke-width: 0; stroke-dasharray: none; stroke-linecap: butt; stroke-linejoin: miter; stroke-miterlimit: 10; fill: none; fill-rule: nonzero; opacity: 1;" transform="translate(1.4065934065934016 1.4065934065934016) scale(2.81 2.81)" >
	<path d="M 60 2.571 l 0 84.859 c 17.466 -6.175 29.985 -22.818 30 -42.396 v -0.068 C 89.985 25.389 77.466 8.745 60 2.571 z" style="stroke: none; stroke-width: 1; stroke-dasharray: none; stroke-linecap: butt; stroke-linejoin: miter; stroke-miterlimit: 10; fill: rgb(188,0,0); fill-rule: nonzero; opacity: 1;" transform=" matrix(1 0 0 1 0 0) " stroke-linecap="round" />
	<path d="M 30 87.429 l 0 -84.858 C 12.524 8.75 0 25.408 0 45 S 12.524 81.25 30 87.429 z" style="stroke: none; stroke-width: 1; stroke-dasharray: none; stroke-linecap: butt; stroke-linejoin: miter; stroke-miterlimit: 10; fill: rgb(11,114,38); fill-rule: nonzero; opacity: 1;" transform=" matrix(1 0 0 1 0 0) " stroke-linecap="round" />
	<path d="M 30 87.429 C 34.693 89.088 39.739 90 45 90 c 5.261 0 10.307 -0.912 15 -2.571 l 0 -84.859 C 55.307 0.911 50.261 0 45 0 c -5.261 0 -10.308 0.912 -15 2.571 L 30 87.429 z" style="stroke: none; stroke-width: 1; stroke-dasharray: none; stroke-linecap: butt; stroke-linejoin: miter; stroke-miterlimit: 10; fill: rgb(243,244,245); fill-rule: nonzero; opacity: 1;" transform=" matrix(1 0 0 1 0 0) " stroke-linecap="round" />
	<path d="M 47.913 46.215 l -1.61 0.805 C 45.504 47.42 45 48.236 45 49.129 l 0 0 h 1.457 L 47.913 46.215 z" style="stroke: none; stroke-width: 1; stroke-dasharray: none; stroke-linecap: butt; stroke-linejoin: miter; stroke-miterlimit: 10; fill: rgb(255,210,80); fill-rule: nonzero; opacity: 1;" transform=" matrix(1 0 0 1 0 0) " stroke-linecap="round" />
	<path d="M 45 52.77 c -0.403 0 -0.728 -0.326 -0.728 -0.728 v -2.913 c 0 -0.403 0.326 -0.728 0.728 -0.728 c 0.403 0 0.728 0.326 0.728 0.728 v 2.913 C 45.728 52.444 45.402 52.77 45 52.77 z" style="stroke: none; stroke-width: 1; stroke-dasharray: none; stroke-linecap: butt; stroke-linejoin: miter; stroke-miterlimit: 10; fill: rgb(122,147,165); fill-rule: nonzero; opacity: 1;" transform=" matrix(1 0 0 1 0 0) " stroke-linecap="round" />
	<path d="M 45 49.857 c -2.861 0 -5.623 -1.104 -7.779 -3.108 c -0.294 -0.274 -0.312 -0.735 -0.038 -1.029 c 0.276 -0.294 0.736 -0.309 1.029 -0.038 C 40.098 47.435 42.508 48.4 45 48.4 c 2.491 0 4.902 -0.965 6.787 -2.718 c 0.294 -0.272 0.754 -0.258 1.029 0.038 c 0.274 0.294 0.257 0.755 -0.038 1.029 C 50.623 48.753 47.86 49.857 45 49.857 z" style="stroke: none; stroke-width: 1; stroke-dasharray: none; stroke-linecap: butt; stroke-linejoin: miter; stroke-miterlimit: 10; fill: rgb(122,147,165); fill-rule: nonzero; opacity: 1;" transform=" matrix(1 0 0 1 0 0) " stroke-linecap="round" />
	<path d="M 45 52.77 c -1.61 0 -3.176 -0.406 -4.574 -1.18 c -0.364 -0.202 -0.47 -0.678 -0.24 -1.025 l 0.008 -0.013 c 0.21 -0.316 0.625 -0.408 0.959 -0.227 c 2.363 1.283 5.331 1.283 7.693 0 c 0.334 -0.181 0.749 -0.089 0.959 0.227 l 0.008 0.013 c 0.23 0.347 0.124 0.823 -0.24 1.025 C 48.176 52.365 46.61 52.77 45 52.77 z" style="stroke: none; stroke-width: 1; stroke-dasharray: none; stroke-linecap: butt; stroke-linejoin: miter; stroke-miterlimit: 10; fill: rgb(122,147,165); fill-rule: nonzero; opacity: 1;" transform=" matrix(1 0 0 1 0 0) " stroke-linecap="round" />
	<path d="M 40.543 47.536 c -1.925 0 -4.236 -1.62 -4.849 -5.23 l 0.254 -0.043 c 0.634 -0.107 1.246 0.27 1.447 0.881 c 0.716 2.17 2.237 2.937 3.2 2.935 c 0.34 -0.009 0.695 -0.127 0.723 -0.367 c 0.033 -0.287 0.041 -0.356 -0.721 -0.613 c -0.414 -0.14 -0.883 -0.299 -1.213 -0.676 c -1.332 -1.521 0.471 -3.132 1.338 -3.905 c 0.153 -0.137 0.216 -0.253 0.2 -0.297 c -0.048 -0.124 -0.333 -0.313 -0.656 -0.313 c -0.925 0 -1.627 -0.523 -1.831 -1.363 c -0.101 -0.414 -0.063 -0.84 0.087 -1.214 c 0.233 -0.583 1.04 -0.627 1.329 -0.07 l 0 0 c 0.1 0.193 0.097 0.416 0.022 0.62 c -0.038 0.104 -0.046 0.222 -0.022 0.319 c 0.018 0.075 0.061 0.251 0.416 0.251 c 0.892 0 1.74 0.526 2.016 1.25 c 0.118 0.309 0.296 1.111 -0.59 1.902 c -0.957 0.854 -1.529 1.497 -1.212 1.859 c 0.072 0.082 0.38 0.186 0.583 0.255 c 0.656 0.222 1.876 0.634 1.701 2.16 c -0.109 0.959 -0.966 1.625 -2.129 1.656 C 40.604 47.535 40.573 47.536 40.543 47.536 z" style="stroke: none; stroke-width: 1; stroke-dasharray: none; stroke-linecap: butt; stroke-linejoin: miter; stroke-miterlimit: 10; fill: rgb(137,193,93); fill-rule: nonzero; opacity: 1;" transform=" matrix(1 0 0 1 0 0) " stroke-linecap="round" />
	<path d="M 42.087 36.509 l -0.427 0.427 c -0.659 0.66 -1.03 1.554 -1.03 2.487 l 0 0 c 0 0 1.733 -0.879 2.317 -1.158 c 0.408 -0.196 0.334 -0.658 0.1 -0.881 C 42.864 37.21 42.087 36.509 42.087 36.509 z" style="stroke: none; stroke-width: 1; stroke-dasharray: none; stroke-linecap: butt; stroke-linejoin: miter; stroke-miterlimit: 10; fill: rgb(255,210,80); fill-rule: nonzero; opacity: 1;" transform=" matrix(1 0 0 1 0 0) " stroke-linecap="round" />
	<path d="M 45 55.683 c -6.57 0 -11.961 -5.143 -12.358 -11.615 c -0.026 -0.416 0.312 -0.766 0.729 -0.766 h 0 c 0.385 0 0.701 0.301 0.725 0.685 C 34.451 49.694 39.206 54.227 45 54.227 s 10.549 -4.533 10.903 -10.239 c 0.024 -0.385 0.34 -0.685 0.725 -0.685 l 0 0 c 0.417 0 0.755 0.35 0.729 0.766 C 56.96 50.54 51.57 55.683 45 55.683 z" style="stroke: none; stroke-width: 1; stroke-dasharray: none; stroke-linecap: butt; stroke-linejoin: miter; stroke-miterlimit: 10; fill: rgb(137,193,93); fill-rule: nonzero; opacity: 1;" transform=" matrix(1 0 0 1 0 0) " stroke-linecap="round" />
	<path d="M 34.153 46.636 c 0.546 0 0.989 0.443 0.989 0.989 c 0 0.546 -0.443 0.989 -0.989 0.989 c -0.546 0 -0.989 -0.443 -0.989 -0.989 C 33.164 47.078 33.607 46.636 34.153 46.636 z" style="stroke: none; stroke-width: 1; stroke-dasharray: none; stroke-linecap: butt; stroke-linejoin: miter; stroke-miterlimit: 10; fill: rgb(255,225,90); fill-rule: nonzero; opacity: 1;" transform=" matrix(1 0 0 1 0 0) " stroke-linecap="round" />
	<path d="M 36.338 50.126 c 0.546 0 0.989 0.443 0.989 0.989 c 0 0.546 -0.443 0.989 -0.989 0.989 c -0.546 0 -0.989 -0.443 -0.989 -0.989 C 35.349 50.568 35.792 50.126 36.338 50.126 z" style="stroke: none; stroke-width: 1; stroke-dasharray: none; stroke-linecap: butt; stroke-linejoin: miter; stroke-miterlimit: 10; fill: rgb(255,225,90); fill-rule: nonzero; opacity: 1;" transform=" matrix(1 0 0 1 0 0) " stroke-linecap="round" />
	<circle cx="39.888999999999996" cy="53.759" r="0.989" style="stroke: none; stroke-width: 1; stroke-dasharray: none; stroke-linecap: butt; stroke-linejoin: miter; stroke-miterlimit: 10; fill: rgb(255,225,90); fill-rule: nonzero; opacity: 1;" transform="  matrix(1 0 0 1 0 0) "/>
	<path d="M 55.95 46.636 c 0.546 0 0.989 0.443 0.989 0.989 c 0 0.546 -0.443 0.989 -0.989 0.989 c -0.546 0 -0.989 -0.443 -0.989 -0.989 C 54.961 47.078 55.404 46.636 55.95 46.636 z" style="stroke: none; stroke-width: 1; stroke-dasharray: none; stroke-linecap: butt; stroke-linejoin: miter; stroke-miterlimit: 10; fill: rgb(255,225,90); fill-rule: nonzero; opacity: 1;" transform=" matrix(1 0 0 1 0 0) " stroke-linecap="round" />
	<path d="M 53.765 50.126 c 0.546 0 0.989 0.443 0.989 0.989 c 0 0.546 -0.443 0.989 -0.989 0.989 c -0.546 0 -0.989 -0.443 -0.989 -0.989 C 52.776 50.568 53.219 50.126 53.765 50.126 z" style="stroke: none; stroke-width: 1; stroke-dasharray: none; stroke-linecap: butt; stroke-linejoin: miter; stroke-miterlimit: 10; fill: rgb(255,225,90); fill-rule: nonzero; opacity: 1;" transform=" matrix(1 0 0 1 0 0) " stroke-linecap="round" />
	<path d="M 50.214 52.766 c 0.546 0 0.989 0.443 0.989 0.989 c 0 0.546 -0.443 0.989 -0.989 0.989 c -0.546 0 -0.989 -0.443 -0.989 -0.989 C 49.225 53.209 49.668 52.766 50.214 52.766 z" style="stroke: none; stroke-width: 1; stroke-dasharray: none; stroke-linecap: butt; stroke-linejoin: miter; stroke-miterlimit: 10; fill: rgb(255,225,90); fill-rule: nonzero; opacity: 1;" transform=" matrix(1 0 0 1 0 0) " stroke-linecap="round" />
	<path d="M 45.728 53.498 h -1.457 c -0.804 0 -1.457 -0.652 -1.457 -1.457 l 0 0 c 0 -0.804 0.652 -1.457 1.457 -1.457 h 1.457 c 0.804 0 1.457 0.652 1.457 1.457 l 0 0 C 47.185 52.846 46.533 53.498 45.728 53.498 z" style="stroke: none; stroke-width: 1; stroke-dasharray: none; stroke-linecap: butt; stroke-linejoin: miter; stroke-miterlimit: 10; fill: rgb(237,164,114); fill-rule: nonzero; opacity: 1;" transform=" matrix(1 0 0 1 0 0) " stroke-linecap="round" />
	<path d="M 53.688 41.779 c -0.028 -0.169 -0.059 -0.335 -0.093 -0.496 c -0.037 -0.178 -0.077 -0.353 -0.121 -0.522 c -1.743 -6.671 -9.209 -6.444 -9.209 -6.444 c 0 0 0.001 0 0.001 0 c 0 0 -0.001 0 -0.001 0 c 3.279 0.754 2.191 5.104 2.191 5.104 v 0.039 c -0.082 -0.179 -0.161 -0.36 -0.249 -0.536 c -0.74 -1.48 -2.253 -2.416 -3.908 -2.416 h -0.213 l 0 0 c 0 0.69 0.329 1.335 0.879 1.751 c 0.351 0.266 0.578 0.687 0.578 1.162 l -0.002 0.002 c -0.867 0.875 -1.08 2.206 -0.529 3.308 l 0.323 0.646 c 0.075 0.151 0.165 0.294 0.266 0.429 l -1.364 2.11 l 0 0 c -0.12 0.359 0.2 0.71 0.568 0.624 l 2.829 -0.656 l 1.791 1.791 c 0.179 0.179 0.486 0.052 0.486 -0.201 v -0.769 l 0.602 0.602 c 0.51 0.51 1.29 0.637 1.935 0.314 l 1.832 -0.916 l -4.52 -2.712 c -0.124 -0.919 -0.326 -1.824 -0.605 -2.708 l 3.944 1.898 c 0 0 0 0 0 0 c 0.486 1.426 1.272 2.975 2.637 3.521 c 0 0 0 0 0.001 0 l 0.001 0.001 C 53.956 44.759 53.914 43.136 53.688 41.779 z" style="stroke: none; stroke-width: 1; stroke-dasharray: none; stroke-linecap: butt; stroke-linejoin: miter; stroke-miterlimit: 10; fill: rgb(124,61,61); fill-rule: nonzero; opacity: 1;" transform=" matrix(1 0 0 1 0 0) " stroke-linecap="round" />
</g>
</svg>