<svg xmlns="http://www.w3.org/2000/svg" xmlns:xlink="http://www.w3.org/1999/xlink" version="1.1" width="256" height="256" viewBox="0 0 256 256" xml:space="preserve">

<defs>
</defs>
<g style="stroke: none; stroke-width: 0; stroke-dasharray: none; stroke-linecap: butt; stroke-linejoin: miter; stroke-miterlimit: 10; fill: none; fill-rule: nonzero; opacity: 1;" transform="translate(1.4065934065934016 1.4065934065934016) scale(2.81 2.81)" >
	<path d="M 89.414 37.768 c -0.988 -6.111 -3.209 -11.806 -6.395 -16.83 c -3.587 -5.656 -8.397 -10.454 -14.064 -14.025 C 63.248 3.316 56.681 0.963 49.629 0.24 V 0.236 C 48.107 0.08 46.563 0 45 0 c -7.568 0 -14.693 1.877 -20.952 5.177 l 0 0 c 0 0 0 0 0 0 c -0.695 0.366 -1.38 0.748 -2.053 1.149 c -0.015 0.009 -0.03 0.017 -0.045 0.026 c -4.052 2.422 -7.687 5.466 -10.783 8.996 l 0 0 c 0 0 0 0 0 0 c -1.422 1.621 -2.728 3.343 -3.908 5.158 l 0 0 l 0 0 C 2.674 27.555 0 35.963 0 45 c 0 2.309 0.175 4.578 0.511 6.794 c 0.924 6.099 3.076 11.793 6.19 16.83 c 3.472 5.617 8.146 10.408 13.661 14.025 C 27.441 87.291 35.902 90 45 90 s 17.559 -2.709 24.638 -7.351 c 5.516 -3.617 10.189 -8.408 13.661 -14.025 c 3.114 -5.037 5.266 -10.731 6.19 -16.83 C 89.825 49.578 90 47.309 90 45 C 90 42.537 89.794 40.124 89.414 37.768 z" style="stroke: none; stroke-width: 1; stroke-dasharray: none; stroke-linecap: butt; stroke-linejoin: miter; stroke-miterlimit: 10; fill: rgb(0,84,48); fill-rule: nonzero; opacity: 1;" transform=" matrix(1 0 0 1 0 0) " stroke-linecap="round" />
	<path d="M 78.156 28.698 c -0.156 -1.437 -0.314 -2.74 -0.276 -3.045 c 0.037 -0.294 0.49 0.41 0.73 0.466 c 0.124 -0.025 0.069 -0.469 -0.157 -0.849 c -0.152 -0.258 -0.672 -1.222 -0.987 -1.787 c -0.148 -0.267 -0.181 -0.422 -0.253 -0.455 c -0.071 -0.033 -0.645 1.125 -0.582 1.253 c 0.157 0.235 0.264 0.348 0.288 0.763 c 0.025 0.416 0.24 3.383 0.514 5.632 c 0.206 1.697 0.659 5.353 0.675 7.625 c 0.005 0.741 -0.078 1.448 -0.176 1.743 c -0.253 0.464 -0.649 0.882 -2.123 1.745 c -1.657 0.97 -3.868 1.777 -4.818 2.317 c -0.591 0.337 -0.395 0.382 0.119 0.234 c 0.513 -0.147 3.167 -0.62 4.456 -1.165 c 1.21 -0.513 1.996 -1.37 2.592 -2.621 c 0.736 -1.547 0.792 -2.859 0.782 -4.548 C 78.93 34.417 78.313 30.135 78.156 28.698 z" style="stroke: none; stroke-width: 1; stroke-dasharray: none; stroke-linecap: butt; stroke-linejoin: miter; stroke-miterlimit: 10; fill: rgb(255,255,255); fill-rule: nonzero; opacity: 1;" transform=" matrix(1 0 0 1 0 0) " stroke-linecap="round" />
	<path d="M 73.809 23.93 c 0.128 -0.05 1.189 -0.104 1.474 -0.045 c -0.188 0.268 -1.459 0.862 -1.465 0.971 c 0.035 0.073 0.878 -0.136 1.144 -0.252 c 0.174 -0.105 0.29 -0.267 0.419 -0.401 c 0.304 -0.35 0.665 -0.999 0.574 -1.08 c -0.148 -0.131 -1.593 -0.05 -1.784 -0.023 c -0.128 0.018 -0.452 0.599 -0.511 0.748 C 73.602 23.997 73.68 23.98 73.809 23.93 z" style="stroke: none; stroke-width: 1; stroke-dasharray: none; stroke-linecap: butt; stroke-linejoin: miter; stroke-miterlimit: 10; fill: rgb(255,255,255); fill-rule: nonzero; opacity: 1;" transform=" matrix(1 0 0 1 0 0) " stroke-linecap="round" />
	<path d="M 75.975 33.354 c 0.221 -0.749 0.276 -1.657 -0.025 -2.613 c -0.309 -0.984 -1.077 -1.585 -1.63 -1.892 l -0.099 0.948 c 0 0 0.776 0.386 1.307 1.357 c 0.336 0.616 0.476 1.487 0.211 2.459 C 75.695 33.853 75.867 33.72 75.975 33.354 z" style="stroke: none; stroke-width: 1; stroke-dasharray: none; stroke-linecap: butt; stroke-linejoin: miter; stroke-miterlimit: 10; fill: rgb(255,255,255); fill-rule: nonzero; opacity: 1;" transform=" matrix(1 0 0 1 0 0) " stroke-linecap="round" />
	<path d="M 67.762 38.106 c 0.199 -0.674 0.248 -1.492 -0.022 -2.353 c -0.278 -0.887 -0.97 -1.427 -1.468 -1.703 l -0.089 0.853 c 0 0 0.699 0.348 1.177 1.222 c 0.303 0.554 0.429 1.34 0.19 2.214 C 67.51 38.556 67.665 38.436 67.762 38.106 z" style="stroke: none; stroke-width: 1; stroke-dasharray: none; stroke-linecap: butt; stroke-linejoin: miter; stroke-miterlimit: 10; fill: rgb(255,255,255); fill-rule: nonzero; opacity: 1;" transform=" matrix(1 0 0 1 0 0) " stroke-linecap="round" />
	<path d="M 39.247 25.202 c 0.32 0.585 0.452 1.413 0.201 2.336 c -0.042 0.229 0.121 0.103 0.224 -0.245 c 0.209 -0.711 0.261 -1.574 -0.025 -2.483 c -0.294 -0.935 -1.023 -1.505 -1.549 -1.797 l -0.093 0.9 C 38.005 23.913 38.743 24.28 39.247 25.202 z" style="stroke: none; stroke-width: 1; stroke-dasharray: none; stroke-linecap: butt; stroke-linejoin: miter; stroke-miterlimit: 10; fill: rgb(255,255,255); fill-rule: nonzero; opacity: 1;" transform=" matrix(1 0 0 1 0 0) " stroke-linecap="round" />
	<path d="M 19.998 25.505 c 0.269 0.63 0.287 1.479 -0.147 2.375 c -0.084 0.225 0.121 0.118 0.293 -0.218 c 0.352 -0.688 0.549 -1.549 0.371 -2.5 c -0.183 -0.978 -0.918 -1.644 -1.468 -2.005 l -0.25 0.893 C 18.798 24.049 19.574 24.512 19.998 25.505 z" style="stroke: none; stroke-width: 1; stroke-dasharray: none; stroke-linecap: butt; stroke-linejoin: miter; stroke-miterlimit: 10; fill: rgb(255,255,255); fill-rule: nonzero; opacity: 1;" transform=" matrix(1 0 0 1 0 0) " stroke-linecap="round" />
	<path d="M 25.319 39.576 c 0.341 -0.633 0.483 -1.06 0.635 -1.81 c 0.133 -0.66 0.141 -1.423 0.093 -2.199 c 1.021 -0.416 2.239 -1.107 2.648 -1.158 c -0.28 0.96 0.388 1.997 1.737 1.861 c 0.103 1.086 0.192 2.04 0.245 2.606 c 0.11 1.16 0.093 2.621 0.09 2.875 c -0.005 0.255 0.18 0.207 0.37 -0.361 c 0.253 -0.761 0.331 -2.748 0.239 -4.062 c -0.022 -0.329 -0.059 -0.772 -0.104 -1.277 c 0.874 -0.405 1.02 -1.185 1.346 -1.518 c 0.295 1.033 1.919 1.173 2.42 0.952 c 0.621 -0.275 0.825 -0.769 0.985 -1.915 c 0.16 -1.146 -0.307 -1.607 -0.474 -1.732 c -0.017 0.139 -0.423 1.486 -0.423 1.486 s 0.385 0.407 0.405 0.607 c -0.314 0.284 -0.976 0.302 -1.532 0.121 c -0.557 -0.181 -0.727 -0.514 -0.694 -0.738 c 0.032 -0.224 0.242 -0.428 0.249 -0.701 c 0.006 -0.273 -0.125 -0.194 -0.347 0.048 c -0.223 0.242 -0.366 0.46 -0.675 0.98 c -0.252 0.425 -0.661 0.944 -1.382 1.092 c -0.119 -1.248 -0.255 -2.577 -0.346 -3.411 c -0.048 -0.44 -0.522 -4.247 -0.556 -4.673 c -0.029 -0.371 -0.084 -0.808 -0.075 -1.014 c 0.009 -0.163 0.112 -0.099 0.27 0.073 c 0.159 0.171 0.437 0.469 0.485 0.445 c 0.162 -0.079 -0.004 -0.574 -0.216 -1.017 c -0.212 -0.444 -0.934 -2.197 -1.085 -2.269 c -0.078 -0.037 -0.566 1.042 -0.595 1.254 c 0.076 0.133 0.273 0.342 0.28 0.936 c 0.003 0.166 0.109 1.729 0.257 3.207 c 0.129 1.305 0.301 2.544 0.317 2.688 c 0.118 0.996 0.261 2.4 0.397 3.781 c -0.783 -0.149 -0.991 -0.665 -0.974 -0.96 c 0.02 -0.332 0.17 -0.707 0.098 -0.792 c -0.151 -0.091 -1.048 0.411 -2.3 0.95 c -0.352 0.151 -0.749 0.314 -1.167 0.468 c -0.109 -0.941 -0.253 -1.836 -0.311 -2.52 l -0.007 -0.076 c 0.823 -0.053 1.497 -0.469 1.803 -0.864 c 0.383 -0.495 0.651 -1.513 0.677 -2.293 c 0.026 -0.781 -0.604 -2.208 -0.754 -2.662 c -0.151 -0.454 -0.229 -0.769 -0.242 -0.926 c -0.014 -0.157 0.34 0.182 0.563 0.248 c 0.151 0.03 0.099 -0.296 -0.086 -0.521 c -0.183 -0.223 -1.173 -1.726 -1.242 -1.62 c -0.043 0.062 -0.439 1.167 -0.465 1.336 c 0.156 0.103 0.339 0.387 0.352 0.66 c 0.013 0.272 0.231 1.47 0.473 2.135 c 0.243 0.665 0.759 1.942 0.792 2.293 c -0.369 0.26 -1.209 0.701 -2.04 0.674 c -0.142 -1.164 -0.322 -2.517 -0.419 -3.474 c -0.037 -0.37 -0.04 -0.765 -0.034 -0.971 c 0.005 -0.164 0.122 -0.141 0.284 0.027 c 0.163 0.168 0.412 0.413 0.464 0.395 c 0.112 -0.037 0.015 -0.408 -0.206 -0.848 c -0.221 -0.44 -1.099 -2.303 -1.254 -2.373 c -0.078 -0.036 -0.471 1.011 -0.496 1.224 c 0.078 0.132 0.28 0.337 0.3 0.931 c 0.016 0.473 0.246 2.793 0.444 4.836 c -0.822 -0.425 -1.103 -1.033 -1.204 -2.053 c -0.071 -0.711 -0.078 -2.022 -0.332 -3.117 c -0.143 -0.62 -0.444 -1.249 -0.801 -1.583 c -0.085 0.206 -0.465 1.47 -0.465 1.47 c 0.124 0.363 0.509 1.585 0.496 2.644 c -0.013 1.059 -0.096 2.094 -1.283 2.807 c -1.186 0.714 -2.964 0.43 -3.404 -0.683 c -0.439 -1.114 0.537 -3.907 0.524 -4.566 c -0.013 -0.659 -0.131 -0.75 -0.407 -0.641 c -0.275 0.109 -0.838 0.745 -1.323 1.779 c -0.485 1.035 -0.701 2.316 -0.976 3.188 c -0.275 0.871 -0.715 1.754 -1.396 1.705 c -0.681 -0.048 -1.047 -0.671 -1.257 -1.572 c -0.21 -0.902 -0.081 -2.09 -0.024 -2.394 c 0.142 -0.762 -0.187 -0.606 -0.389 0.591 c -0.125 0.738 -0.249 1.918 0.19 3.152 c 0.438 1.234 1.186 1.695 1.841 1.537 c 0.655 -0.157 1.231 -1.694 1.435 -2.384 c 0.203 -0.689 1.111 -3.75 1.625 -3.901 c 0.072 0.345 -0.4 1.457 -0.55 2.758 c -0.15 1.301 0.2 3.048 1.851 3.35 c 1.651 0.302 2.771 -0.768 3.177 -1.512 c 0.407 -0.745 0.596 -1.525 0.642 -1.918 c 0.053 0.998 0.734 2.556 2.056 3 l 0.136 0.039 c 0.081 0.817 0.214 1.883 0.336 3.002 c -0.257 0.079 -0.517 0.151 -0.776 0.213 c -0.033 -0.107 -0.069 -0.212 -0.114 -0.309 c -0.404 -0.868 -1.072 -1.669 -1.998 -1.613 c -0.946 0.056 -1.977 1.318 -1.932 2.24 c 0.03 0.62 0.371 1.129 1.612 1.259 c 0.567 0.06 1.169 -0.003 1.791 -0.139 c 0.088 0.256 0.143 0.511 0.149 0.743 c -0.393 0.46 -3.648 2.915 -6.085 3.151 c -2.437 0.236 -3.18 -1.042 -3.205 -2.324 c -0.018 -0.976 0.568 -1.949 0.981 -2.623 c 0.59 -0.432 1.074 -0.971 1.38 -1.388 c 0.083 0.051 0.162 0.099 0.237 0.142 c 0.291 0.169 0.407 0.422 0.407 0.422 c 0.054 -0.083 0.304 -0.533 0.206 -0.754 c -0.045 -0.054 -0.265 -0.19 -0.53 -0.351 c 0.278 -0.693 0.274 -1.385 -0.086 -1.539 c -0.403 -0.172 -0.929 0.305 -1.156 0.596 c -0.118 0.151 -0.163 0.323 -0.164 0.467 c -0.002 0.185 0.086 0.353 0.301 0.502 c 0.215 0.147 0.414 0.28 0.602 0.4 c -0.533 0.559 -1.791 1.379 -2.561 1.86 c -0.029 -0.071 -0.141 0.004 -0.293 0.183 l -0.209 0.129 c -0.614 0.376 -2.088 1.201 -2.377 1.403 c -0.29 0.202 -0.108 0.166 0 0.121 c 0.205 -0.11 0.473 -0.244 0.775 -0.392 c 0.427 -0.209 0.924 -0.445 1.41 -0.683 c -0.144 0.244 -0.293 0.529 -0.424 0.84 c -0.58 1.369 -1.517 4.205 0.51 5.912 c 1.939 1.634 5.273 1.012 8.037 -0.686 C 24.289 40.79 24.886 40.193 25.319 39.576 z M 22.646 35.142 c -1.408 0.006 -1.473 -0.249 -1.446 -0.413 c 0.026 -0.163 0.464 -0.609 1.021 -0.315 c 0.235 0.125 0.5 0.386 0.745 0.714 C 22.857 35.137 22.751 35.141 22.646 35.142 z M 16.305 32.828 c -0.096 -0.071 -0.109 -0.165 -0.031 -0.231 c 0.1 -0.085 0.227 -0.165 0.371 -0.192 c 0.307 -0.057 0.429 0.295 0.306 0.844 C 16.718 33.107 16.478 32.957 16.305 32.828 z M 12.924 39.919 c -0.12 -1.7 0.5 -2.981 0.9 -3.703 c 0.381 -0.189 0.742 -0.372 1.04 -0.536 c -0.696 1.121 -1.104 2.623 -0.831 3.895 c 0.308 1.441 1.562 2.315 3.684 2.033 c 2.101 -0.278 4.943 -2.277 5.748 -3.031 c 0.245 -0.272 0.407 -0.517 0.628 -1.017 c 0.091 -0.205 0.219 -0.476 0.266 -0.782 c 0.031 -0.199 0.048 -0.413 0.051 -0.63 c 0.247 -0.074 0.495 -0.156 0.744 -0.245 c 0.085 0.912 0.147 1.811 0.151 2.589 c -1.309 1.536 -4.311 3.326 -6.97 4.053 C 15.675 43.271 13.081 42.146 12.924 39.919 z" style="stroke: none; stroke-width: 1; stroke-dasharray: none; stroke-linecap: butt; stroke-linejoin: miter; stroke-miterlimit: 10; fill: rgb(255,255,255); fill-rule: nonzero; opacity: 1;" transform=" matrix(1 0 0 1 0 0) " stroke-linecap="round" />
	<path d="M 56.635 30.681 c 0.03 -0.546 0.264 -1.058 0.354 -1.381 c 0.124 -0.445 0.125 -0.875 0.02 -0.631 c -0.236 0.544 -0.676 1.596 -0.767 2.309 c -0.091 0.714 0.14 1.174 0.454 1.331 c 0.392 0.197 0.674 -0.115 0.865 -0.575 c 0.183 -0.44 0.149 -0.955 0.021 -0.833 c -0.107 0.126 -0.146 0.55 -0.279 0.591 C 57.03 31.574 56.602 31.285 56.635 30.681 z" style="stroke: none; stroke-width: 1; stroke-dasharray: none; stroke-linecap: butt; stroke-linejoin: miter; stroke-miterlimit: 10; fill: rgb(255,255,255); fill-rule: nonzero; opacity: 1;" transform=" matrix(1 0 0 1 0 0) " stroke-linecap="round" />
	<path d="M 53.45 33.134 c -0.251 0.463 -0.721 1.358 -0.858 1.979 c -0.137 0.622 0.029 1.042 0.294 1.201 c 0.33 0.199 0.601 -0.056 0.807 -0.448 c 0.196 -0.375 0.206 -0.83 0.086 -0.731 c -0.104 0.104 -0.173 0.473 -0.292 0.5 c -0.247 0.055 -0.6 -0.228 -0.524 -0.758 c 0.069 -0.477 0.316 -0.912 0.421 -1.19 C 53.527 33.304 53.561 32.928 53.45 33.134 z" style="stroke: none; stroke-width: 1; stroke-dasharray: none; stroke-linecap: butt; stroke-linejoin: miter; stroke-miterlimit: 10; fill: rgb(255,255,255); fill-rule: nonzero; opacity: 1;" transform=" matrix(1 0 0 1 0 0) " stroke-linecap="round" />
	<path d="M 41.968 41.796 c 0.242 -0.392 0.362 -0.799 0.194 -0.594 c -0.374 0.459 -1.083 1.35 -1.369 2.004 c -0.285 0.654 -0.194 1.144 0.06 1.368 c 0.317 0.279 0.67 0.05 0.979 -0.34 c 0.296 -0.373 0.407 -0.868 0.252 -0.784 c -0.136 0.095 -0.291 0.486 -0.428 0.493 c -0.281 0.014 -0.606 -0.361 -0.407 -0.926 C 41.429 42.508 41.793 42.08 41.968 41.796 z" style="stroke: none; stroke-width: 1; stroke-dasharray: none; stroke-linecap: butt; stroke-linejoin: miter; stroke-miterlimit: 10; fill: rgb(255,255,255); fill-rule: nonzero; opacity: 1;" transform=" matrix(1 0 0 1 0 0) " stroke-linecap="round" />
	<path d="M 61.981 30.347 c -0.277 0.07 -0.687 -0.241 -0.619 -0.843 c 0.062 -0.544 0.327 -1.042 0.436 -1.359 c 0.151 -0.439 0.177 -0.867 0.058 -0.63 c -0.268 0.532 -0.77 1.559 -0.904 2.267 c -0.134 0.708 0.069 1.179 0.373 1.352 c 0.38 0.215 0.679 -0.081 0.898 -0.531 c 0.209 -0.43 0.206 -0.945 0.071 -0.83 C 62.181 29.893 62.116 30.313 61.981 30.347 z" style="stroke: none; stroke-width: 1; stroke-dasharray: none; stroke-linecap: butt; stroke-linejoin: miter; stroke-miterlimit: 10; fill: rgb(255,255,255); fill-rule: nonzero; opacity: 1;" transform=" matrix(1 0 0 1 0 0) " stroke-linecap="round" />
	<path d="M 61.896 37.737 c 0.379 0.215 0.68 -0.081 0.898 -0.531 c 0.209 -0.43 0.206 -0.945 0.072 -0.83 c -0.114 0.121 -0.179 0.542 -0.314 0.576 c -0.277 0.069 -0.688 -0.241 -0.619 -0.843 c 0.062 -0.544 0.327 -1.042 0.436 -1.359 c 0.151 -0.439 0.177 -0.868 0.058 -0.63 c -0.269 0.532 -0.77 1.559 -0.904 2.266 C 61.388 37.093 61.591 37.564 61.896 37.737 z" style="stroke: none; stroke-width: 1; stroke-dasharray: none; stroke-linecap: butt; stroke-linejoin: miter; stroke-miterlimit: 10; fill: rgb(255,255,255); fill-rule: nonzero; opacity: 1;" transform=" matrix(1 0 0 1 0 0) " stroke-linecap="round" />
	<path d="M 66.813 27.534 c -0.325 0.643 -0.932 1.886 -1.095 2.743 c -0.162 0.857 0.084 1.426 0.453 1.636 c 0.459 0.26 0.822 -0.098 1.087 -0.642 c 0.252 -0.521 0.249 -1.144 0.086 -1.005 c -0.138 0.146 -0.217 0.655 -0.38 0.696 c -0.335 0.084 -0.832 -0.291 -0.748 -1.02 c 0.076 -0.658 0.396 -1.261 0.528 -1.645 C 66.926 27.766 66.958 27.247 66.813 27.534 z" style="stroke: none; stroke-width: 1; stroke-dasharray: none; stroke-linecap: butt; stroke-linejoin: miter; stroke-miterlimit: 10; fill: rgb(255,255,255); fill-rule: nonzero; opacity: 1;" transform=" matrix(1 0 0 1 0 0) " stroke-linecap="round" />
	<path d="M 28.003 37.481 c 0.299 -0.647 0.407 -1.295 0.187 -0.95 c -0.492 0.772 -1.419 2.267 -1.735 3.326 c -0.317 1.059 -0.082 1.803 0.354 2.109 c 0.544 0.379 1.047 -0.032 1.451 -0.686 c 0.386 -0.627 0.463 -1.412 0.24 -1.255 c -0.192 0.168 -0.358 0.8 -0.569 0.833 c -0.433 0.068 -1.008 -0.46 -0.807 -1.367 C 27.305 38.672 27.787 37.949 28.003 37.481 z" style="stroke: none; stroke-width: 1; stroke-dasharray: none; stroke-linecap: butt; stroke-linejoin: miter; stroke-miterlimit: 10; fill: rgb(255,255,255); fill-rule: nonzero; opacity: 1;" transform=" matrix(1 0 0 1 0 0) " stroke-linecap="round" />
	<path d="M 69.832 43.897 c 0.229 -0.188 2.22 -1.26 2.586 -1.478 c 0 0 0.375 -0.611 0.262 -0.676 c -0.113 -0.065 -0.84 0.596 -1.292 0.614 c -0.452 0.018 -1.072 -0.314 -1.092 -0.586 c 0.059 -0.206 0.603 -0.514 0.799 -0.527 c 0.197 -0.011 0.165 0.436 0.231 0.491 c 0.066 0.054 0.327 -0.309 0.36 -0.46 c 0.032 -0.151 0.005 -0.783 -0.354 -0.692 c -0.57 0.144 -1.429 1.201 -1.527 1.533 c -0.099 0.333 0.432 0.623 0.82 0.781 c -0.033 0.012 -0.322 0.151 -0.505 0.332 C 70.12 43.228 69.924 43.449 69.832 43.897 z" style="stroke: none; stroke-width: 1; stroke-dasharray: none; stroke-linecap: butt; stroke-linejoin: miter; stroke-miterlimit: 10; fill: rgb(255,255,255); fill-rule: nonzero; opacity: 1;" transform=" matrix(1 0 0 1 0 0) " stroke-linecap="round" />
	<path d="M 63.044 45.225 c 0.229 -0.188 2.219 -1.259 2.586 -1.478 c 0 0 0.376 -0.611 0.262 -0.676 c -0.113 -0.065 -0.84 0.596 -1.292 0.614 c -0.452 0.018 -1.072 -0.314 -1.092 -0.586 c 0.059 -0.206 0.603 -0.514 0.8 -0.526 c 0.197 -0.012 0.165 0.435 0.231 0.489 c 0.066 0.055 0.327 -0.308 0.36 -0.46 c 0.032 -0.151 0.005 -0.783 -0.354 -0.692 c -0.57 0.145 -1.429 1.201 -1.527 1.534 c -0.099 0.332 0.432 0.622 0.819 0.78 c -0.032 0.012 -0.321 0.151 -0.504 0.332 C 63.333 44.557 63.136 44.777 63.044 45.225 z" style="stroke: none; stroke-width: 1; stroke-dasharray: none; stroke-linecap: butt; stroke-linejoin: miter; stroke-miterlimit: 10; fill: rgb(255,255,255); fill-rule: nonzero; opacity: 1;" transform=" matrix(1 0 0 1 0 0) " stroke-linecap="round" />
	<path d="M 47.754 26.006 c 0.178 0.207 1.348 1.693 2.264 2.627 c 0.916 0.935 2.485 2.447 3.638 3.484 c 0.223 0.201 0.46 0.419 0.701 0.645 c 0.291 2.233 0.627 5.075 0.768 6.25 c 0.139 1.157 0.16 2.618 0.163 2.873 c 0.003 0.255 0.186 0.203 0.36 -0.369 c 0.234 -0.767 0.261 -2.755 0.137 -4.067 c -0.077 -0.811 -0.258 -2.329 -0.434 -3.729 c 0.681 0.673 1.324 1.34 1.758 1.84 c 0.797 0.917 1.468 1.609 1.876 2.595 c 0.289 0.698 0.26 1.253 0.378 1.362 c 0.102 0.095 0.216 -0.74 0.089 -1.549 c -0.205 -1.314 -0.486 -1.872 -2.173 -3.749 c -0.644 -0.717 -1.401 -1.467 -2.142 -2.168 c -0.029 -0.216 -0.055 -0.416 -0.078 -0.594 c -0.059 -0.439 -0.63 -4.234 -0.676 -4.659 c -0.038 -0.37 -0.106 -0.806 -0.1 -1.012 c 0.004 -0.164 0.108 -0.1 0.272 0.067 c 0.163 0.167 0.448 0.459 0.496 0.434 c 0.159 -0.083 -0.018 -0.573 -0.242 -1.012 c -0.223 -0.439 -0.99 -2.175 -1.144 -2.244 c -0.078 -0.035 -0.538 1.054 -0.562 1.267 c 0.08 0.131 0.282 0.336 0.304 0.93 c 0.006 0.166 0.153 1.727 0.338 3.2 c 0.164 1.302 0.366 2.537 0.387 2.68 l 0.001 0.011 c -0.764 -0.697 -1.437 -1.288 -1.845 -1.66 c -0.954 -0.867 -3.062 -2.926 -3.147 -3.234 c -0.019 -0.097 0.145 -0.037 0.445 0.011 c 0.302 0.049 0.571 0.151 0.522 0.003 c -0.022 -0.07 -0.138 -0.243 -0.426 -0.421 c -0.288 -0.178 -1.027 -0.641 -1.577 -0.968 c -0.551 -0.327 -0.823 -0.6 -0.937 -0.522 c -0.056 0.039 -0.006 1.157 0.027 1.297 C 47.335 25.636 47.577 25.798 47.754 26.006 z" style="stroke: none; stroke-width: 1; stroke-dasharray: none; stroke-linecap: butt; stroke-linejoin: miter; stroke-miterlimit: 10; fill: rgb(255,255,255); fill-rule: nonzero; opacity: 1;" transform=" matrix(1 0 0 1 0 0) " stroke-linecap="round" />
	<path d="M 49.259 23.994 c 0.226 -0.05 1.297 -0.023 1.686 0.059 c -0.163 0.113 -1.258 0.667 -1.475 0.798 c -0.215 0.132 -0.27 0.209 -0.162 0.196 c 0.314 -0.087 1.022 -0.196 1.361 -0.372 c 0.32 -0.15 0.865 -0.88 1.077 -1.152 c 0.211 -0.272 0.211 -0.408 0.157 -0.481 c -0.217 -0.118 -1.612 -0.236 -2.285 -0.069 c -0.186 0.126 -0.551 0.8 -0.604 0.94 C 48.959 24.053 49.033 24.043 49.259 23.994 z" style="stroke: none; stroke-width: 1; stroke-dasharray: none; stroke-linecap: butt; stroke-linejoin: miter; stroke-miterlimit: 10; fill: rgb(255,255,255); fill-rule: nonzero; opacity: 1;" transform=" matrix(1 0 0 1 0 0) " stroke-linecap="round" />
	<path d="M 55.215 23.906 c 0.183 -0.04 1.046 -0.018 1.358 0.047 c -0.131 0.091 -1.013 0.537 -1.188 0.644 c -0.175 0.106 -0.218 0.168 -0.131 0.157 c 0.253 -0.07 0.824 -0.157 1.097 -0.3 c 0.257 -0.121 0.697 -0.709 0.867 -0.928 c 0.17 -0.22 0.17 -0.329 0.126 -0.388 c -0.174 -0.096 -1.299 -0.191 -1.841 -0.056 c -0.15 0.102 -0.443 0.644 -0.487 0.758 C 54.974 23.953 55.034 23.946 55.215 23.906 z" style="stroke: none; stroke-width: 1; stroke-dasharray: none; stroke-linecap: butt; stroke-linejoin: miter; stroke-miterlimit: 10; fill: rgb(255,255,255); fill-rule: nonzero; opacity: 1;" transform=" matrix(1 0 0 1 0 0) " stroke-linecap="round" />
	<path d="M 60.057 23.844 c 0.182 -0.04 1.045 -0.018 1.358 0.047 c -0.13 0.091 -1.013 0.537 -1.188 0.644 c -0.174 0.107 -0.217 0.168 -0.13 0.158 c 0.253 -0.07 0.868 -0.158 1.141 -0.3 c 0.258 -0.121 0.563 -0.709 0.734 -0.929 c 0.171 -0.219 0.171 -0.329 0.126 -0.387 c -0.174 -0.096 -1.21 -0.191 -1.752 -0.057 c -0.15 0.102 -0.444 0.645 -0.488 0.758 C 59.816 23.891 59.875 23.884 60.057 23.844 z" style="stroke: none; stroke-width: 1; stroke-dasharray: none; stroke-linecap: butt; stroke-linejoin: miter; stroke-miterlimit: 10; fill: rgb(255,255,255); fill-rule: nonzero; opacity: 1;" transform=" matrix(1 0 0 1 0 0) " stroke-linecap="round" />
	<path d="M 57.037 26.202 c -0.287 0.452 0.073 0.816 0.204 1.181 c -0.177 0.162 -0.449 0.014 -0.54 -0.128 c -0.193 -0.291 -0.129 -0.883 -0.356 -0.974 c -0.058 0.16 -0.096 0.338 -0.096 0.338 s 0.173 0.405 0.13 0.673 c -0.028 0.162 -0.171 0.351 -0.359 0.355 c -0.503 0.012 -0.255 -0.733 -0.45 -1.155 c -0.04 0.103 -0.068 0.214 -0.114 0.311 c 0.036 0.11 0.055 0.264 0.061 0.353 c 0.012 0.177 -0.002 0.367 0.028 0.518 c 0.042 0.214 0.16 0.355 0.341 0.369 c 0.376 0.03 0.547 -0.275 0.604 -0.524 c 0.065 0.255 0.562 0.536 0.807 0.223 c 0.324 -0.413 0.065 -0.766 -0.101 -1.154 C 57.074 26.301 57.109 26.112 57.037 26.202 z" style="stroke: none; stroke-width: 1; stroke-dasharray: none; stroke-linecap: butt; stroke-linejoin: miter; stroke-miterlimit: 10; fill: rgb(255,255,255); fill-rule: nonzero; opacity: 1;" transform=" matrix(1 0 0 1 0 0) " stroke-linecap="round" />
	<path d="M 42.912 25.005 c 0.026 0.186 0.121 0.312 0.277 0.332 c 0.321 0.041 0.484 -0.215 0.545 -0.427 c 0.043 0.222 0.458 0.483 0.684 0.224 c 0.299 -0.343 0.092 -0.657 -0.033 -0.999 c -0.089 -0.253 -0.051 -0.413 -0.117 -0.339 c -0.269 0.377 0.024 0.706 0.12 1.026 c -0.16 0.131 -0.387 -0.006 -0.459 -0.131 c -0.153 -0.259 -0.069 -0.766 -0.26 -0.855 c -0.058 0.136 -0.099 0.287 -0.099 0.287 s 0.129 0.356 0.079 0.585 c -0.031 0.139 -0.163 0.296 -0.326 0.292 c -0.433 -0.01 -0.185 -0.641 -0.333 -1.012 c -0.038 0.087 -0.069 0.182 -0.114 0.262 c 0.026 0.097 0.036 0.23 0.036 0.307 C 42.916 24.71 42.894 24.872 42.912 25.005 z" style="stroke: none; stroke-width: 1; stroke-dasharray: none; stroke-linecap: butt; stroke-linejoin: miter; stroke-miterlimit: 10; fill: rgb(255,255,255); fill-rule: nonzero; opacity: 1;" transform=" matrix(1 0 0 1 0 0) " stroke-linecap="round" />
	<path d="M 47.464 45.281 c 0.202 -0.06 1.221 -0.388 1.627 -0.556 c 0.405 -0.168 0.901 -0.445 1.499 -0.833 c 0.664 -0.431 1.061 -0.862 1.195 -1.244 c 0.095 -0.272 0.119 -0.381 0.119 -0.381 s 0.25 0.147 0.673 0.244 c 0.422 0.097 0.542 0.066 0.591 -0.012 c 0.048 -0.077 0.155 -0.288 0.128 -0.432 c -0.027 -0.144 -0.203 -0.745 -0.546 -0.895 c -0.34 -0.151 -0.598 0.165 -0.761 0.604 l -0.113 -0.003 c -0.027 0.065 -0.061 0.162 -0.088 0.337 c -0.038 0.253 -0.11 0.416 -0.544 0.811 c -0.365 0.33 -1.549 1.123 -2.315 1.495 c -0.768 0.373 -1.32 0.695 -1.524 0.793 C 47.202 45.306 47.261 45.342 47.464 45.281 z M 52.595 41.646 c 0.188 0.071 0.302 0.276 0.336 0.4 c -0.216 0.005 -0.613 -0.105 -0.782 -0.181 C 52.251 41.668 52.428 41.583 52.595 41.646 z" style="stroke: none; stroke-width: 1; stroke-dasharray: none; stroke-linecap: butt; stroke-linejoin: miter; stroke-miterlimit: 10; fill: rgb(255,255,255); fill-rule: nonzero; opacity: 1;" transform=" matrix(1 0 0 1 0 0) " stroke-linecap="round" />
	<path d="M 48.808 44.445 c 0.01 -0.369 -0.138 -1.523 -0.138 -1.523 c -0.589 -0.082 -2.074 -0.307 -2.437 -1.169 c 0.305 -0.445 1.709 -1.008 3.469 -1.534 c 1.759 -0.526 3.597 -1.208 4.092 -1.537 c 0.108 -0.037 0.318 -0.026 0.318 -0.026 c 0.088 -0.255 0.53 -1.149 0.558 -1.337 c -0.492 0.028 -3.522 0.251 -4.868 0.323 c -1.347 0.073 -3.941 0.055 -4.805 0.045 c 0.53 -0.381 1.788 -1.125 3.586 -1.76 c 0.233 -0.083 0.449 -0.157 0.65 -0.224 c 0.15 0.267 0.261 0.53 0.284 0.76 c 0.114 -0.118 0.2 -0.508 0.171 -0.908 c 1.048 -0.335 1.588 -0.445 1.821 -0.508 c 0.147 -0.191 0.408 -0.961 0.447 -1.522 c -0.157 -0.285 -0.647 -0.641 -1.083 -0.946 c -0.601 -0.42 -1.249 -0.786 -1.896 -0.626 c -0.885 0.217 -1.062 1.842 -0.856 2.187 c 0.066 0.109 0.221 0.302 0.405 0.54 c -0.646 0.254 -1.322 0.553 -1.918 0.867 c -1.327 0.699 -2.809 1.464 -3.241 2.199 l -0.124 0.06 c -0.035 0.07 -0.308 1.208 -0.348 1.33 c 0.276 -0.01 2.337 -0.006 3.772 -0.05 c 1.435 -0.046 2.689 -0.091 3.18 -0.091 c -0.728 0.172 -2.634 0.881 -3.183 1.298 c -0.548 0.418 -0.893 1.053 -0.902 2.142 c -0.511 -0.2 -1.461 -0.657 -2.27 -1.752 c -0.902 -1.22 -0.716 -2.475 -1.077 -4.122 c -0.525 -2.39 -1.645 -4.407 -2.343 -5.025 c -0.235 0.843 -0.265 1.479 -0.265 1.479 s 0.874 1.933 1.317 3.167 c 0.443 1.234 0.821 2.45 0.802 2.722 c -0.364 0.799 -2.522 2.473 -4.319 3.453 c -1.705 0.929 -3.207 1.029 -3.739 0.367 c -0.105 -0.129 -0.176 -0.282 -0.216 -0.455 c 0.231 -0.108 0.464 -0.217 0.702 -0.326 c 1.533 -0.698 4.255 -2.168 4.893 -2.939 c 0.688 -0.935 0.679 -2.251 0.275 -3.004 c -0.402 -0.753 -1.032 -1.625 -1.082 -1.933 c -0.038 -0.146 0.409 0.059 0.674 0.073 c 0.128 -0.01 0.064 -0.182 -0.211 -0.454 c -0.22 -0.217 -1.07 -0.921 -1.394 -1.196 c -0.081 -0.07 -0.142 -0.042 -0.159 0.032 c -0.063 0.281 -0.193 0.883 -0.243 1.18 l 0.035 0.15 c 0.093 0.055 0.201 0.118 0.253 0.273 c 0.074 0.22 0.331 0.835 0.753 1.612 c 0.423 0.776 1.033 1.632 1.093 2.065 c -0.497 0.633 -3.001 1.982 -5.44 3.094 c 0.151 -0.468 0.389 -0.996 0.704 -1.583 c 0.09 -0.099 0.171 -0.222 0.247 -0.36 c 0.243 -0.445 0.267 -0.988 0.119 -0.873 c -0.126 0.122 -0.217 0.563 -0.362 0.593 c -0.296 0.061 -0.712 -0.285 -0.607 -0.917 c 0.095 -0.57 0.4 -1.085 0.531 -1.415 c 0.183 -0.456 0.233 -0.907 0.094 -0.662 c -0.311 0.548 -0.895 1.609 -1.074 2.35 c -0.178 0.74 0.011 1.246 0.324 1.442 c 0.117 0.075 0.229 0.098 0.335 0.083 c -0.214 0.407 -0.478 0.907 -0.671 1.503 c -0.981 0.439 -1.935 0.831 -2.725 1.114 c -2.84 1.016 -4.863 1.615 -6.279 2.06 l -0.055 0.025 c 0.104 -0.336 0.09 -0.624 -0.021 -0.537 C 24.235 43.84 24.145 44.281 24 44.31 c -0.296 0.061 -0.712 -0.285 -0.608 -0.917 c 0.095 -0.57 0.4 -1.084 0.532 -1.415 c 0.182 -0.456 0.232 -0.907 0.094 -0.662 c -0.312 0.548 -0.895 1.609 -1.074 2.35 c -0.179 0.741 0.011 1.247 0.323 1.443 c 0.389 0.244 0.721 -0.055 0.976 -0.519 l 0.089 -0.191 c 0.088 0 0.238 -0.021 0.46 -0.07 c 0.649 -0.146 2.27 -0.381 4.5 -0.672 c 1.651 -0.215 2.791 -0.668 3.893 -1.173 c -0.005 0.122 -0.006 0.246 -0.001 0.374 c 0.06 1.513 1.052 1.94 2.408 1.657 c 1.308 -0.275 3.132 -1.474 4.225 -2.283 c 1.14 -0.843 1.798 -1.597 1.965 -1.86 c 0.304 -0.644 0.388 -1.357 0.408 -1.692 c 0.1 0.925 0.18 2.206 1.055 3.304 C 44.052 42.996 45.703 44.406 48.808 44.445 z M 48.465 33.546 c 0.445 -0.499 1.393 -0.173 2.105 0.46 c -0.365 0.086 -0.86 0.238 -1.407 0.433 C 48.839 34.048 48.477 33.67 48.465 33.546 z" style="stroke: none; stroke-width: 1; stroke-dasharray: none; stroke-linecap: butt; stroke-linejoin: miter; stroke-miterlimit: 10; fill: rgb(255,255,255); fill-rule: nonzero; opacity: 1;" transform=" matrix(1 0 0 1 0 0) " stroke-linecap="round" />
	<path d="M 31.007 26.706 c 0.202 -0.092 0.818 -0.369 1.483 -0.757 c 0.664 -0.385 1.287 -0.851 1.592 -1.16 c 0.117 -0.119 0.221 -0.212 0.288 -0.322 c 0.199 0.082 0.336 0.168 0.422 0.202 c 0.128 0.05 0.3 0.121 0.411 -0.245 c 0.111 -0.366 -0.036 -0.602 -0.254 -0.884 c -0.184 -0.236 -0.476 -0.592 -0.712 -0.68 c -0.201 -0.075 -0.296 0.373 -0.266 0.362 h 0.134 l 0.026 0.013 c -0.276 0.139 -0.49 0.573 -0.512 0.726 c -0.022 0.166 0.01 0.288 0.406 0.39 l 0.159 0.047 c -0.331 0.392 -0.948 0.797 -1.368 1.084 c -0.596 0.409 -1.442 0.919 -1.683 1.067 C 30.893 26.696 30.914 26.742 31.007 26.706 z M 34.59 23.827 l 0.021 -0.196 c 0.279 0.318 0.486 0.696 0.465 0.749 c -0.128 0.01 -0.288 -0.108 -0.566 -0.227 C 34.541 24.058 34.567 23.953 34.59 23.827 z M 33.789 23.827 c -0.002 -0.06 0.106 -0.225 0.333 -0.316 c 0.227 -0.091 0.327 0.163 0.347 0.474 l -0.067 0.124 l -0.205 -0.071 C 33.981 23.975 33.835 23.939 33.789 23.827 z" style="stroke: none; stroke-width: 1; stroke-dasharray: none; stroke-linecap: butt; stroke-linejoin: miter; stroke-miterlimit: 10; fill: rgb(255,255,255); fill-rule: nonzero; opacity: 1;" transform=" matrix(1 0 0 1 0 0) " stroke-linecap="round" />
	<path d="M 43.711 34.586 c -0.775 0.02 -0.393 -1.127 -0.692 -1.776 c -0.061 0.159 -0.104 0.33 -0.177 0.477 c 0.055 0.171 0.085 0.408 0.093 0.545 c 0.02 0.272 -0.002 0.565 0.043 0.798 c 0.064 0.329 0.247 0.547 0.526 0.567 c 0.578 0.047 0.842 -0.423 0.93 -0.806 c 0.1 0.392 0.865 0.823 1.242 0.342 c 0.499 -0.635 0.1 -1.179 -0.155 -1.777 l -0.03 -0.078 c 0.036 0.013 0.169 -0.046 0.387 -0.19 c 0.327 -0.216 1.227 -0.866 1.737 -1.291 c 0.355 -0.296 0.772 -0.731 1.055 -1.099 c 0.178 0.115 0.343 0.217 0.494 0.306 c 0.291 0.17 0.408 0.422 0.408 0.422 c 0.054 -0.083 0.304 -0.534 0.206 -0.754 c -0.059 -0.072 -0.416 -0.281 -0.782 -0.505 c 0.185 -0.416 0.441 -1.136 0.075 -1.389 c -0.313 -0.214 -0.84 0.14 -1.085 0.6 c -0.202 0.38 -0.228 0.703 0.157 0.968 c 0.108 0.074 0.212 0.145 0.314 0.212 c -0.388 0.424 -1.103 1.052 -1.611 1.48 c -0.632 0.529 -1.229 1.047 -1.333 1.171 l -0.03 0.048 c -0.138 -0.384 -0.1 -0.621 -0.203 -0.494 c -0.443 0.694 0.112 1.256 0.314 1.818 c -0.273 0.247 -0.69 0.02 -0.83 -0.196 c -0.298 -0.448 -0.199 -1.359 -0.548 -1.5 c -0.09 0.246 -0.149 0.52 -0.149 0.52 s 0.266 0.624 0.198 1.036 C 44.221 34.289 44 34.581 43.711 34.586 z M 48.137 29.112 c 0.192 -0.356 0.595 -0.386 0.716 -0.199 c 0.096 0.148 0.104 0.437 -0.04 0.743 C 48.457 29.432 48.139 29.213 48.137 29.112 z" style="stroke: none; stroke-width: 1; stroke-dasharray: none; stroke-linecap: butt; stroke-linejoin: miter; stroke-miterlimit: 10; fill: rgb(255,255,255); fill-rule: nonzero; opacity: 1;" transform=" matrix(1 0 0 1 0 0) " stroke-linecap="round" />
	<path d="M 33.258 30.428 c -0.681 -0.048 -1.047 -0.672 -1.257 -1.573 c -0.21 -0.901 -0.081 -2.089 -0.024 -2.394 c 0.057 -0.304 -0.264 -0.147 -0.389 0.591 c -0.124 0.738 -0.249 1.917 0.19 3.152 c 0.438 1.233 1.186 1.694 1.841 1.536 c 0.655 -0.157 1.231 -1.694 1.435 -2.383 c 0.203 -0.69 1.111 -3.503 1.625 -3.655 c 0.072 0.345 -0.4 1.21 -0.55 2.511 c -0.15 1.301 0.111 3.007 1.762 3.309 c 1.651 0.303 2.771 -0.768 3.177 -1.513 c 0.407 -0.743 0.596 -1.525 0.642 -1.918 c 0.053 0.998 0.734 2.557 2.056 3.001 c 1.278 0.429 2.254 0.036 2.686 -0.52 c 0.383 -0.494 0.695 -1.512 0.722 -2.293 c 0.026 -0.78 -0.648 -2.208 -0.799 -2.662 c -0.151 -0.453 -0.229 -0.768 -0.243 -0.925 c -0.013 -0.157 0.341 0.182 0.564 0.248 c 0.151 0.03 0.098 -0.296 -0.086 -0.521 c -0.183 -0.223 -1.174 -1.726 -1.243 -1.621 c -0.043 0.063 -0.439 1.168 -0.465 1.337 c 0.157 0.103 0.339 0.387 0.352 0.66 c 0.012 0.272 0.275 1.47 0.517 2.135 c 0.243 0.665 0.714 1.942 0.747 2.293 c -0.471 0.332 -1.533 0.755 -2.542 0.327 c -1.009 -0.43 -1.33 -1.053 -1.442 -2.166 c -0.071 -0.711 -0.078 -2.022 -0.332 -3.117 c -0.143 -0.619 -0.444 -1.249 -0.802 -1.583 c -0.084 0.205 -0.464 1.47 -0.464 1.47 c 0.124 0.363 0.509 1.585 0.497 2.644 c -0.014 1.058 -0.097 2.094 -1.284 2.807 c -1.186 0.714 -2.875 0.429 -3.314 -0.684 c -0.439 -1.113 0.537 -3.617 0.524 -4.277 c -0.013 -0.659 -0.132 -0.751 -0.407 -0.641 c -0.275 0.109 -0.839 0.745 -1.323 1.779 c -0.485 1.035 -0.7 2.069 -0.976 2.94 C 34.379 29.593 33.939 30.476 33.258 30.428 z" style="stroke: none; stroke-width: 1; stroke-dasharray: none; stroke-linecap: butt; stroke-linejoin: miter; stroke-miterlimit: 10; fill: rgb(255,255,255); fill-rule: nonzero; opacity: 1;" transform=" matrix(1 0 0 1 0 0) " stroke-linecap="round" />
	<path d="M 13.488 26.568 c 0.838 -0.061 1.546 -0.696 1.729 -0.865 c 0.183 -0.17 0.282 -0.423 0.151 -0.327 c -0.969 0.865 -2.266 0.89 -2.339 0.744 c 0.033 -0.145 0.374 -0.381 0.872 -0.714 c 0.302 -0.202 0.572 -0.392 0.773 -0.66 l 0.055 0.01 c 0.369 0.081 0.795 0.242 0.925 0.113 c 0.212 -0.209 0.24 -0.551 0.01 -0.92 c -0.194 -0.313 -0.647 -0.605 -1.04 -0.815 c -0.393 -0.209 -0.469 0.125 -0.519 0.244 c -0.048 0.111 -0.029 0.206 0.055 0.208 c -0.126 0.172 -0.216 0.394 -0.25 0.578 c -0.021 0.118 -0.004 0.215 0.044 0.295 c 0.014 0.023 0.087 0.112 0.224 0.164 l 0.171 0.053 c -0.294 0.271 -0.632 0.484 -0.81 0.591 c -0.321 0.194 -0.701 0.532 -0.818 0.883 C 12.603 26.502 12.649 26.629 13.488 26.568 z M 14.969 24.097 l 0.032 -0.179 v -0.115 c 0.266 0.193 0.69 0.559 0.664 0.779 c -0.168 -0.038 -0.489 -0.106 -0.793 -0.184 C 14.911 24.306 14.943 24.206 14.969 24.097 z M 14.182 24.152 c -0.195 -0.156 -0.005 -0.311 0.168 -0.411 c 0.224 -0.129 0.354 -0.023 0.469 0.316 c -0.04 0.097 -0.096 0.191 -0.162 0.282 C 14.482 24.285 14.237 24.199 14.182 24.152 z" style="stroke: none; stroke-width: 1; stroke-dasharray: none; stroke-linecap: butt; stroke-linejoin: miter; stroke-miterlimit: 10; fill: rgb(255,255,255); fill-rule: nonzero; opacity: 1;" transform=" matrix(1 0 0 1 0 0) " stroke-linecap="round" />
	<path d="M 16.002 36.031 c -0.241 0.209 -0.334 0.889 -0.285 0.93 c 0.049 0.041 0.802 0.295 0.919 0.35 l 0.054 -0.205 c 0.359 0.322 0.756 1.929 0.845 1.933 c 0.088 0.004 0.216 -0.182 0.3 -0.609 c 0.077 -0.396 0.155 -0.988 0.235 -1.47 c 0.075 -0.441 0.192 -0.694 0.457 -0.744 c 0.266 -0.05 0.462 0.291 0.531 0.522 c 0 0 0.186 -0.445 0.226 -0.722 c -0.044 -0.146 -0.457 -0.694 -0.796 -0.513 c -0.339 0.182 -0.552 0.952 -0.62 1.433 c -0.069 0.481 -0.122 1.076 -0.205 1.172 c -0.088 -0.41 -0.368 -1.144 -0.707 -1.557 C 16.574 36.09 16.129 35.921 16.002 36.031 z" style="stroke: none; stroke-width: 1; stroke-dasharray: none; stroke-linecap: butt; stroke-linejoin: miter; stroke-miterlimit: 10; fill: rgb(255,255,255); fill-rule: nonzero; opacity: 1;" transform=" matrix(1 0 0 1 0 0) " stroke-linecap="round" />
	<path d="M 12.79 35.21 c 0.314 -0.086 1.022 -0.195 1.361 -0.372 c 0.319 -0.15 0.864 -0.88 1.076 -1.152 c 0.211 -0.272 0.212 -0.409 0.158 -0.481 c -0.216 -0.118 -1.612 -0.236 -2.286 -0.069 c -0.186 0.126 -0.55 0.799 -0.604 0.94 c -0.055 0.14 0.02 0.131 0.245 0.082 c 0.226 -0.05 1.297 -0.023 1.685 0.058 c -0.162 0.114 -1.257 0.667 -1.474 0.799 C 12.737 35.146 12.682 35.223 12.79 35.21 z" style="stroke: none; stroke-width: 1; stroke-dasharray: none; stroke-linecap: butt; stroke-linejoin: miter; stroke-miterlimit: 10; fill: rgb(255,255,255); fill-rule: nonzero; opacity: 1;" transform=" matrix(1 0 0 1 0 0) " stroke-linecap="round" />
	<path d="M 58.989 30.679 c 0.247 1.692 0.793 4.766 0.863 7.038 c 0.023 0.741 -0.083 1.274 -0.174 1.571 c -0.236 0.455 -0.619 0.961 -1.968 1.921 c -0.208 -1.357 0.018 -2.459 -0.179 -2.561 c -0.223 0.024 -0.258 0.656 -0.283 1.436 c -0.012 0.36 0.003 0.859 0.071 1.395 c -1.656 1.107 -3.845 2.115 -4.872 2.653 c -0.603 0.316 -0.385 0.39 0.125 0.232 c 0.51 -0.159 3.314 -0.894 4.811 -1.681 l 0.161 -0.089 c 0.076 0.264 0.168 0.52 0.281 0.755 c 0.504 1.047 1.223 1.668 2.003 1.607 c 0.656 -0.05 1.131 -0.752 1.546 -1.589 c 0.419 -0.847 1.128 -2.456 1.823 -3.055 c 0.267 -0.231 0.543 -0.413 0.811 -0.523 c 0 0 0.081 -0.019 0.188 -0.032 c 0.017 0.855 -0.006 1.642 -0.013 1.821 c -0.01 0.255 0.177 0.211 0.377 -0.355 c 0.106 -0.299 0.187 -0.792 0.244 -1.357 c 0.039 0.019 0.077 0.024 0.115 0.049 c 0.157 0.103 0.273 0.25 0.347 0.414 c 0.172 0.377 0.376 0.857 0.792 1.259 c 0.734 0.707 1.914 0.561 2.799 0.15 c 0.884 -0.411 1.335 -1.053 1.532 -1.816 c 0.336 -1.305 0.282 -2.641 0.218 -3.828 c -0.074 -1.355 -0.29 -2.74 -0.414 -4.207 c -0.04 -0.472 -0.117 -1.128 -0.206 -1.84 c 0.862 0.995 1.757 2.004 2.3 2.556 c 0.187 0.191 0.385 0.402 0.588 0.626 c 0.162 2.221 0.318 5 0.4 6.166 c 0.081 1.162 0.029 2.623 0.019 2.877 c -0.01 0.254 0.131 0.211 0.334 -0.353 c 0.272 -0.757 0.443 -2.741 0.383 -4.057 c -0.036 -0.782 -0.114 -2.208 -0.198 -3.556 c 0.669 0.795 1.304 1.597 1.717 2.139 c 0.735 0.962 1.409 2.106 1.645 2.819 c 0.236 0.714 0.262 0.926 0.307 1.053 c 0.046 0.127 0.249 -0.394 0.216 -1.21 c -0.032 -0.816 -0.432 -2.07 -1.953 -3.993 c -0.525 -0.664 -1.263 -1.528 -2.042 -2.413 c -0.021 -0.302 -0.043 -0.578 -0.062 -0.814 c -0.102 -1.218 -0.448 -3.703 -0.597 -5.173 c -0.036 -0.371 -0.039 -0.765 -0.034 -0.971 c 0.005 -0.163 0.123 -0.142 0.285 0.026 c 0.162 0.168 0.412 0.413 0.464 0.396 c 0.111 -0.038 0.014 -0.409 -0.207 -0.849 c -0.221 -0.44 -1.055 -2.222 -1.208 -2.291 c -0.079 -0.035 -0.472 1.011 -0.497 1.225 c 0.078 0.131 0.28 0.336 0.299 0.931 c 0.021 0.594 0.379 4.105 0.585 6.317 l 0.011 0.123 c -1.164 -1.3 -2.261 -2.485 -2.712 -2.966 c -0.078 -0.083 -0.164 -0.178 -0.257 -0.28 c -0.074 -0.592 -0.141 -1.156 -0.188 -1.621 c -0.038 -0.37 -0.041 -0.765 -0.034 -0.971 c 0.004 -0.163 0.122 -0.141 0.284 0.027 c 0.163 0.168 0.411 0.413 0.464 0.395 c 0.111 -0.037 0.014 -0.408 -0.207 -0.849 c -0.22 -0.44 -1.09 -2.263 -1.244 -2.332 c -0.078 -0.035 -0.49 1.094 -0.514 1.306 c 0.079 0.132 0.28 0.337 0.3 0.931 c 0.008 0.253 0.074 1.018 0.161 1.984 c -0.772 -0.917 -1.528 -1.878 -1.581 -2.073 c -0.019 -0.096 0.144 -0.037 0.446 0.012 c 0.301 0.048 0.583 0.139 0.535 -0.01 c -0.023 -0.069 -0.138 -0.242 -0.426 -0.421 c -0.288 -0.178 -1.027 -0.641 -1.577 -0.967 c -0.551 -0.327 -0.823 -0.601 -0.937 -0.523 c -0.056 0.039 -0.006 1.158 0.026 1.297 c 0.138 0.013 0.394 0.115 0.557 0.333 c 0.164 0.218 1.217 1.694 2.05 2.692 c 0.24 0.287 0.615 0.733 1.054 1.247 c 0.086 0.919 0.176 1.87 0.25 2.663 c 0.169 1.811 0.776 6.586 0.782 8.138 c -0.448 0.421 -1.365 1.007 -2.308 1.02 c -0.943 0.012 -1.461 -0.236 -1.841 -0.938 c -0.117 -0.217 -0.226 -0.436 -0.335 -0.634 c -0.133 -0.243 -0.352 -0.428 -0.608 -0.534 c 0.004 -0.12 0.007 -0.239 0.009 -0.357 l -0.042 -1.489 c -0.09 -1.49 -0.307 -4.186 -0.429 -5.554 c -0.107 -1.217 -0.319 -2.886 -0.473 -4.355 c -0.039 -0.37 -0.043 -0.724 -0.039 -0.93 c 0.005 -0.163 0.167 -0.1 0.33 0.067 c 0.163 0.167 0.417 0.377 0.465 0.352 c 0.159 -0.083 -0.031 -0.49 -0.255 -0.929 c -0.224 -0.44 -1.11 -2.258 -1.264 -2.328 c -0.078 -0.035 -0.494 1.054 -0.518 1.268 c 0.079 0.131 0.282 0.335 0.304 0.929 c 0.022 0.595 0.323 3.329 0.54 5.54 c 0.15 1.537 0.345 4.045 0.486 5.937 c -0.006 0.003 0.091 1.247 0.132 1.777 c -0.007 0.002 -0.014 0 -0.021 0.001 l -0.084 0.023 l -0.15 0.072 c -0.374 0.196 -0.761 0.524 -1.14 1.034 c -0.654 0.884 -1.073 1.843 -1.557 2.673 c -0.504 0.865 -0.892 1.445 -1.777 1.306 c -0.623 -0.098 -1.096 -0.632 -1.388 -1.29 c 0.819 -0.567 1.414 -1.306 1.849 -2.331 c 0.566 -1.332 0.768 -2.834 0.718 -4.522 c -0.048 -1.589 -0.773 -5.328 -0.964 -6.761 c -0.191 -1.434 -0.465 -2.61 -0.433 -2.916 c 0.03 -0.295 0.5 0.4 0.741 0.452 c 0.123 -0.027 0.057 -0.471 -0.177 -0.846 c -0.159 -0.255 -0.661 -1.414 -0.99 -1.973 c -0.155 -0.264 -0.192 -0.417 -0.264 -0.449 c -0.071 -0.032 -0.619 1.137 -0.552 1.264 c 0.162 0.232 0.273 0.342 0.307 0.757 C 58.286 25.391 58.661 28.436 58.989 30.679 z" style="stroke: none; stroke-width: 1; stroke-dasharray: none; stroke-linecap: butt; stroke-linejoin: miter; stroke-miterlimit: 10; fill: rgb(255,255,255); fill-rule: nonzero; opacity: 1;" transform=" matrix(1 0 0 1 0 0) " stroke-linecap="round" />
	<path d="M 68.44 64.072 L 68.44 64.072 l -5.709 0 c 0.439 -0.317 0.669 -0.779 0.607 -1.246 c -0.039 -0.295 -0.331 -0.515 -0.687 -0.544 h -0.179 c -0.433 0.042 -0.747 0.354 -0.701 0.697 l 0.017 0.132 l 0.021 0.203 c 0.023 0.254 0.001 0.51 -0.071 0.759 H 19.543 c 0.627 0.912 1.769 1.471 3.003 1.47 l 38.505 -0.024 c -0.44 0.317 -0.671 0.78 -0.609 1.248 c 0.046 0.343 0.433 0.587 0.866 0.545 c 0.432 -0.042 0.746 -0.354 0.701 -0.698 l -0.017 -0.131 h 2.263 c 0.04 0.221 0.26 0.39 0.529 0.39 c 0.269 0 0.489 -0.169 0.53 -0.39 h 2.302 v -0.005 c 0.481 0.341 1.091 0.537 1.737 0.537 c 0.608 0 1.101 -0.422 1.101 -0.944 v -0.273 C 70.452 64.845 69.552 64.072 68.44 64.072 z M 65.295 66.28 c -0.066 -0.19 -0.27 -0.329 -0.513 -0.329 s -0.446 0.139 -0.513 0.329 h -2.301 c -0.023 -0.255 -0.001 -0.512 0.072 -0.762 l 4.75 -0.003 l 0.132 0.223 c 0.119 0.201 0.27 0.383 0.445 0.542 L 65.295 66.28 z" style="stroke: none; stroke-width: 1; stroke-dasharray: none; stroke-linecap: butt; stroke-linejoin: miter; stroke-miterlimit: 10; fill: rgb(255,255,255); fill-rule: nonzero; opacity: 1;" transform=" matrix(1 0 0 1 0 0) " stroke-linecap="round" />
</g>
</svg>