<svg xmlns="http://www.w3.org/2000/svg" xmlns:xlink="http://www.w3.org/1999/xlink" version="1.1" width="256" height="256" viewBox="0 0 256 256" xml:space="preserve">

<defs>
</defs>
<g style="stroke: none; stroke-width: 0; stroke-dasharray: none; stroke-linecap: butt; stroke-linejoin: miter; stroke-miterlimit: 10; fill: none; fill-rule: nonzero; opacity: 1;" transform="translate(1.4065934065934016 1.4065934065934016) scale(2.81 2.81)" >
	<circle cx="45" cy="45" r="45" style="stroke: none; stroke-width: 1; stroke-dasharray: none; stroke-linecap: butt; stroke-linejoin: miter; stroke-miterlimit: 10; fill: rgb(243,244,245); fill-rule: nonzero; opacity: 1;" transform="  matrix(1 0 0 1 0 0) "/>
	<path d="M 45 0 C 20.147 0 0 20.147 0 45 h 90 C 90 20.147 69.853 0 45 0 z" style="stroke: none; stroke-width: 1; stroke-dasharray: none; stroke-linecap: butt; stroke-linejoin: miter; stroke-miterlimit: 10; fill: rgb(232,0,0); fill-rule: nonzero; opacity: 1;" transform=" matrix(1 0 0 1 0 0) " stroke-linecap="round" />
	<path d="M 34.518 11.886 c -5.54 1.27 -9.657 5.373 -10.821 10.95 c -1.581 7.578 3.354 14.998 10.947 16.58 c -7.671 2.187 -15.597 -2.222 -17.765 -9.821 c -2.166 -7.6 2.243 -15.526 9.843 -17.693 C 29.391 11.141 31.847 11.136 34.518 11.886 L 34.518 11.886 z" style="stroke: none; stroke-width: 1; stroke-dasharray: none; stroke-linecap: butt; stroke-linejoin: miter; stroke-miterlimit: 10; fill: rgb(255,255,255); fill-rule: nonzero; opacity: 1;" transform=" matrix(1 0 0 1 0 0) " stroke-linecap="round" />
	<path d="M 32.34 23.507 l 0.816 2.52 L 31 24.488 l -2.145 1.553 l 0.797 -2.524 l -2.139 -1.559 l 2.646 -0.023 l 0.822 -2.518 l 0.838 2.511 l 2.648 0.004 L 32.34 23.507 z M 35.266 32.183 l 0.816 2.52 l -2.155 -1.538 l -2.145 1.553 l 0.797 -2.524 l -2.139 -1.559 l 2.646 -0.023 l 0.822 -2.518 l 0.839 2.512 l 2.648 0.004 L 35.266 32.183 z M 45.003 32.12 l 0.816 2.52 l -2.155 -1.538 l -2.145 1.553 l 0.797 -2.524 l -2.139 -1.559 l 2.646 -0.023 l 0.822 -2.518 l 0.839 2.512 l 2.648 0.004 L 45.003 32.12 z M 47.908 23.514 l 0.816 2.52 l -2.155 -1.538 l -2.145 1.553 l 0.797 -2.524 l -2.139 -1.559 l 2.646 -0.023 l 0.822 -2.518 l 0.838 2.511 l 2.648 0.004 L 47.908 23.514 z M 40.199 17.805 l 0.816 2.52 l -2.155 -1.538 l -2.145 1.553 l 0.797 -2.524 l -2.139 -1.559 l 2.646 -0.023 l 0.822 -2.518 l 0.839 2.511 l 2.648 0.004 L 40.199 17.805 z" style="stroke: none; stroke-width: 1; stroke-dasharray: none; stroke-linecap: butt; stroke-linejoin: miter; stroke-miterlimit: 10; fill: rgb(255,255,255); fill-rule: nonzero; opacity: 1;" transform=" matrix(1 0 0 1 0 0) " stroke-linecap="round" />
</g>
</svg>