<!DOCTYPE svg PUBLIC "-//W3C//DTD SVG 1.1//EN" "http://www.w3.org/Graphics/SVG/1.1/DTD/svg11.dtd">
<!-- Uploaded to: SVG Repo, www.svgrepo.com, Transformed by: SVG Repo Mixer Tools -->
<svg height="800px" width="800px" version="1.1" id="Layer_1" xmlns="http://www.w3.org/2000/svg" xmlns:xlink="http://www.w3.org/1999/xlink" viewBox="0 0 511.998 511.998" xml:space="preserve" fill="#000000">
<g id="SVGRepo_bgCarrier" stroke-width="0"/>
<g id="SVGRepo_tracerCarrier" stroke-linecap="round" stroke-linejoin="round"/>
<g id="SVGRepo_iconCarrier"> <path style="fill:#b3b3b3;" d="M511.351,401.722l-31.999-129.388c-2.374-9.6-10.906-16.335-20.695-16.335h-95.977 c13.87-0.01,24.045-13.189,20.68-26.795L351.36,99.816c-2.374-9.6-10.906-16.335-20.695-16.335h-149.32 c-9.789,0-18.321,6.735-20.695,16.335l-31.999,129.388c-3.365,13.606,6.809,26.785,20.68,26.795H53.342 c-9.789,0-18.321,6.735-20.695,16.335L0.647,401.722c-3.366,13.61,6.817,26.795,20.695,26.795h213.319 c12.062,0,21.327-9.959,21.338-21.501c0.011,11.542,9.276,21.501,21.338,21.501h213.319 C504.533,428.517,514.716,415.332,511.351,401.722z M288.64,272.334l-31.999,129.388c-0.412,1.663-0.618,3.319-0.642,4.946 c-0.024-1.627-0.23-3.283-0.642-4.946l-31.999-129.388c-2.373-9.596-10.901-16.329-20.684-16.334h106.653 C299.54,256.005,291.013,262.737,288.64,272.334z"/> <path style="fill:#e6e6e6;" d="M116.871,255.999h59.361l-37.1,172.518H77.915L116.871,255.999z M372.865,255.999L333.91,428.517 h61.216l37.1-172.518H372.865z M205.918,255.999h61.216l37.1-172.518h-59.361L205.918,255.999z"/> </g>
</svg>