<svg xmlns="http://www.w3.org/2000/svg" xmlns:xlink="http://www.w3.org/1999/xlink" version="1.1" width="256" height="256" viewBox="0 0 256 256" xml:space="preserve">

<defs>
</defs>
<g style="stroke: none; stroke-width: 0; stroke-dasharray: none; stroke-linecap: butt; stroke-linejoin: miter; stroke-miterlimit: 10; fill: none; fill-rule: nonzero; opacity: 1;" transform="translate(1.4065934065934016 1.4065934065934016) scale(2.81 2.81)" >
	<path d="M 87.427 60.007 H 63.153 L 25.317 85.474 C 31.263 88.371 37.941 90 45 90 C 64.589 90 81.245 77.479 87.427 60.007 z" style="stroke: none; stroke-width: 1; stroke-dasharray: none; stroke-linecap: butt; stroke-linejoin: miter; stroke-miterlimit: 10; fill: rgb(0,0,204); fill-rule: nonzero; opacity: 1;" transform=" matrix(1 0 0 1 0 0) " stroke-linecap="round" />
	<path d="M 24.222 5.085 C 37.869 13.644 63.15 29.999 63.15 29.999 h 24.28 C 81.263 12.555 64.654 0.047 45.109 0 h -0.218 C 37.434 0.018 30.409 1.857 24.222 5.085 z" style="stroke: none; stroke-width: 1; stroke-dasharray: none; stroke-linecap: butt; stroke-linejoin: miter; stroke-miterlimit: 10; fill: rgb(255,0,0); fill-rule: nonzero; opacity: 1;" transform=" matrix(1 0 0 1 0 0) " stroke-linecap="round" />
	<path d="M 19.695 7.786 c -5.257 3.582 -9.713 8.248 -13.052 13.678 c 14.716 9.931 34.858 23.525 34.858 23.525 L 6.643 68.534 c 3.337 5.427 7.791 10.091 13.045 13.673 l 41.456 -28.048 h 27.92 C 89.676 51.201 90 48.138 90 44.999 c 0 -3.141 -0.324 -6.206 -0.936 -9.165 H 61.144 L 19.695 7.786 z" style="stroke: none; stroke-width: 1; stroke-dasharray: none; stroke-linecap: butt; stroke-linejoin: miter; stroke-miterlimit: 10; fill: rgb(0,153,51); fill-rule: nonzero; opacity: 1;" transform=" matrix(1 0 0 1 0 0) " stroke-linecap="round" />
	<path d="M 3.905 26.666 C 1.403 32.267 0 38.467 0 44.999 c 0 6.534 1.404 12.737 3.908 18.34 L 31.2 44.993 L 3.905 26.666 z" style="stroke: none; stroke-width: 1; stroke-dasharray: none; stroke-linecap: butt; stroke-linejoin: miter; stroke-miterlimit: 10; fill: rgb(0,0,0); fill-rule: nonzero; opacity: 1;" transform=" matrix(1 0 0 1 0 0) " stroke-linecap="round" />
	<path d="M 6.643 68.534 l 34.858 -23.545 c 0 0 -20.142 -13.594 -34.858 -23.525 c -1.023 1.663 -1.933 3.402 -2.736 5.199 L 31.2 44.989 L 3.907 63.335 C 4.71 65.132 5.62 66.87 6.643 68.534 z" style="stroke: none; stroke-width: 1; stroke-dasharray: none; stroke-linecap: butt; stroke-linejoin: miter; stroke-miterlimit: 10; fill: rgb(255,204,0); fill-rule: nonzero; opacity: 1;" transform=" matrix(1 0 0 1 0 0) " stroke-linecap="round" />
	<path d="M 63.151 29.997 L 25.314 4.525 c -1.956 0.953 -3.833 2.044 -5.618 3.26 l 41.451 28.048 h 27.917 c -0.414 -1.998 -0.966 -3.945 -1.635 -5.837 H 63.151 z" style="stroke: none; stroke-width: 1; stroke-dasharray: none; stroke-linecap: butt; stroke-linejoin: miter; stroke-miterlimit: 10; fill: rgb(243,244,245); fill-rule: nonzero; opacity: 1;" transform=" matrix(1 0 0 1 0 0) " stroke-linecap="round" />
	<path d="M 19.698 82.213 c 1.785 1.216 3.662 2.306 5.618 3.26 l 37.835 -25.466 h 24.275 c 0.669 -1.892 1.222 -3.838 1.635 -5.836 H 61.147 L 19.698 82.213 z" style="stroke: none; stroke-width: 1; stroke-dasharray: none; stroke-linecap: butt; stroke-linejoin: miter; stroke-miterlimit: 10; fill: rgb(243,244,245); fill-rule: nonzero; opacity: 1;" transform=" matrix(1 0 0 1 0 0) " stroke-linecap="round" />
</g>
</svg>